<svg width="659" height="440" viewBox="0 0 659 440" fill="none" xmlns="http://www.w3.org/2000/svg">
<rect x="1" y="0.5" width="657.5" height="439" rx="23.5" fill="white"/>
<rect x="1" y="0.5" width="657.5" height="439" rx="23.5" stroke="#E1E2E6"/>
<path d="M226.657 210.733C223.267 208.452 214.359 207.48 207.883 209.222C207.535 202.774 204.208 197.34 198.122 192.602L195.87 191.091L194.368 193.358C191.418 197.834 190.175 203.8 190.613 209.224C190.962 212.566 192.123 216.321 194.368 219.046C185.938 223.933 178.17 222.823 143.761 222.823H90.637C90.4813 230.59 91.7309 245.526 101.235 257.686C102.284 259.029 103.435 260.33 104.685 261.581C112.412 269.314 124.087 274.986 141.546 275C168.178 275.025 190.998 260.635 204.88 225.846C209.449 225.921 221.505 226.663 227.405 215.268C227.548 215.076 228.907 212.246 228.907 212.246L226.657 210.733ZM125.308 202.717H110.37V217.647H125.308V202.717ZM144.607 202.717H129.668V217.647H144.607V202.717ZM163.907 202.717H148.968V217.647H163.907V202.717ZM183.205 202.717H168.269V217.647H183.207V202.717H183.205ZM106.008 202.717H91.0692V217.647H106.008V202.717ZM125.308 183.86H110.37V198.79H125.308V183.86ZM144.607 183.86H129.668V198.79H144.607V183.86ZM163.907 183.86H148.968V198.79H163.907V183.86ZM163.907 165H148.968V179.93H163.907V165Z" fill="#1D63ED"/>
<path d="M567.949 251.958C567.949 255.836 564.902 258.88 560.94 258.88C557.017 258.88 553.889 255.836 553.889 251.958C553.889 248.164 557.017 245.119 560.94 245.119C564.902 245.121 567.949 248.166 567.949 251.958ZM555.642 251.958C555.642 255.002 557.896 257.421 560.983 257.421C563.986 257.421 566.199 255.002 566.199 252.001C566.199 248.956 563.986 246.495 560.942 246.495C557.896 246.495 555.642 248.958 555.642 251.958ZM559.856 255.545H558.271V248.706C558.894 248.581 559.772 248.498 560.897 248.498C562.192 248.498 562.774 248.706 563.276 248.999C563.653 249.29 563.943 249.832 563.943 250.5C563.943 251.251 563.36 251.835 562.528 252.085V252.169C563.192 252.416 563.569 252.918 563.778 253.835C563.984 254.878 564.109 255.295 564.279 255.545H562.569C562.36 255.295 562.233 254.671 562.026 253.876C561.901 253.127 561.483 252.793 560.606 252.793H559.856V255.545ZM559.897 251.667H560.647C561.524 251.667 562.233 251.376 562.233 250.668C562.233 250.041 561.776 249.622 560.772 249.622C560.356 249.622 560.063 249.665 559.897 249.71V251.667Z" fill="#1D63ED"/>
<path d="M299.108 182.748C298.126 181.79 296.948 181.302 295.537 181.302C294.091 181.302 292.913 181.79 291.968 182.748C291.022 183.706 290.559 184.935 290.559 186.398V210.846C285.703 206.835 280.1 204.812 273.727 204.812C266.319 204.812 259.985 207.486 254.736 212.852C249.487 218.2 246.881 224.67 246.881 232.258C246.881 239.846 249.506 246.298 254.736 251.665C259.985 257.013 266.303 259.705 273.727 259.705C281.151 259.705 287.4 257.031 292.718 251.665C297.967 246.37 300.572 239.902 300.572 232.258V186.398C300.57 184.935 300.089 183.706 299.108 182.748ZM289.237 238.872V238.909C288.362 240.987 287.166 242.811 285.65 244.365C284.134 245.938 282.348 247.166 280.313 248.088C278.261 249.009 276.083 249.462 273.745 249.462C271.408 249.462 269.177 249.009 267.124 248.088C265.071 247.166 263.303 245.938 261.806 244.384C260.306 242.83 259.112 241.005 258.237 238.927C257.362 236.83 256.916 234.609 256.916 232.258C256.916 229.91 257.362 227.686 258.237 225.59C259.112 223.493 260.308 221.687 261.806 220.133C263.305 218.579 265.09 217.351 267.124 216.429C269.177 215.508 271.373 215.055 273.745 215.055C276.12 215.055 278.261 215.508 280.313 216.429C282.366 217.351 284.134 218.579 285.65 220.152C287.166 221.724 288.362 223.548 289.237 225.608C290.112 227.686 290.559 229.892 290.559 232.24C290.557 234.588 290.112 236.812 289.237 238.872Z" fill="#1D63ED"/>
<path d="M520.897 221.724C519.594 218.47 517.609 215.526 515.005 212.887L514.97 212.868C509.668 207.52 503.33 204.828 495.979 204.828C488.625 204.828 482.235 207.502 476.986 212.868C471.738 218.216 469.134 224.686 469.134 232.274C469.134 239.862 471.758 246.314 476.986 251.681C482.233 257.029 488.555 259.721 495.979 259.721C502.723 259.721 508.56 257.5 513.524 253.054C514.485 252.043 514.97 250.815 514.97 249.385C514.97 247.956 514.507 246.693 513.559 245.735C512.614 244.776 511.418 244.289 509.99 244.289C508.742 244.326 507.634 244.742 506.69 245.573C505.19 246.873 503.565 247.868 501.8 248.519C500.032 249.17 498.104 249.496 496 249.496C494.142 249.496 492.357 249.207 490.663 248.611C488.965 248.016 487.379 247.201 485.968 246.136C484.538 245.069 483.308 243.806 482.255 242.305C481.202 240.823 480.399 239.179 479.865 237.373H517.83C519.238 237.373 520.416 236.885 521.399 235.927C522.382 234.969 522.864 233.74 522.864 232.276C522.86 228.48 522.196 224.959 520.897 221.724ZM479.826 227.18C480.344 225.391 481.129 223.747 482.182 222.248C483.237 220.765 484.484 219.484 485.912 218.417C487.359 217.35 488.928 216.537 490.659 215.941C492.388 215.346 494.154 215.057 495.979 215.057C497.799 215.057 499.567 215.346 501.277 215.941C502.992 216.537 504.565 217.35 505.973 218.417C507.403 219.484 508.65 220.747 509.703 222.248C510.773 223.73 511.58 225.374 512.133 227.18H479.826Z" fill="#1D63ED"/>
<path d="M567.551 208.262C566.657 207.377 565.533 206.689 564.177 206.184C562.82 205.678 561.339 205.334 559.715 205.135C558.108 204.937 556.59 204.847 555.183 204.847C551.985 204.847 548.988 205.371 546.169 206.419C543.348 207.467 540.742 208.966 538.349 210.918V209.943C538.349 208.534 537.868 207.341 536.884 206.347C535.905 205.354 534.744 204.849 533.371 204.849C531.994 204.849 530.781 205.354 529.802 206.347C528.819 207.341 528.337 208.553 528.337 209.943V254.63C528.337 256.038 528.819 257.232 529.802 258.225C530.781 259.218 531.959 259.724 533.371 259.724C534.778 259.724 535.922 259.218 536.884 258.225C537.868 257.232 538.349 256.02 538.349 254.63V232.277C538.349 229.892 538.796 227.652 539.671 225.555C540.545 223.458 541.742 221.653 543.258 220.099C544.778 218.544 546.562 217.316 548.594 216.429C550.647 215.526 552.827 215.074 555.167 215.074C557.502 215.074 559.715 215.49 561.735 216.302C562.536 216.665 563.234 216.845 563.841 216.845C564.537 216.845 565.197 216.718 565.803 216.448C566.41 216.178 566.946 215.815 567.393 215.346C567.84 214.877 568.194 214.335 568.462 213.702C568.731 213.088 568.874 212.418 568.874 211.696C568.874 210.287 568.427 209.148 567.536 208.262H567.551Z" fill="#1D63ED"/>
<path d="M357.972 221.742C356.669 218.507 354.722 215.545 352.1 212.871C346.8 207.523 340.464 204.83 333.109 204.83C325.754 204.83 319.367 207.504 314.118 212.871C308.869 218.219 306.266 224.689 306.266 232.277C306.266 239.865 308.89 246.317 314.118 251.683C319.367 257.031 325.685 259.724 333.109 259.724C340.533 259.724 346.782 257.05 352.1 251.683C357.349 246.388 359.955 239.92 359.955 232.277C359.918 228.481 359.256 224.975 357.972 221.742ZM348.619 238.872V238.909C347.745 240.987 346.548 242.811 345.032 244.365C343.516 245.938 341.73 247.166 339.696 248.088C337.661 249.009 335.465 249.462 333.128 249.462C330.79 249.462 328.559 249.009 326.506 248.088C324.454 247.166 322.686 245.938 321.188 244.384C319.688 242.83 318.494 241.005 317.619 238.927C316.744 236.83 316.298 234.609 316.298 232.258C316.298 229.91 316.744 227.686 317.619 225.59C318.494 223.493 319.69 221.687 321.188 220.133C322.688 218.579 324.472 217.351 326.506 216.429C328.559 215.508 330.755 215.055 333.128 215.055C335.5 215.055 337.643 215.508 339.696 216.429C341.748 217.351 343.516 218.579 345.032 220.152C346.548 221.724 347.745 223.548 348.619 225.608C349.494 227.686 349.941 229.892 349.941 232.24C349.941 234.588 349.494 236.812 348.619 238.872Z" fill="#1D63ED"/>
<path d="M465.348 209.924C465.348 209.238 465.205 208.587 464.938 207.973C464.67 207.359 464.313 206.8 463.867 206.329C463.42 205.86 462.886 205.479 462.279 205.227C461.673 204.975 461.013 204.83 460.317 204.83C459.317 204.83 458.424 205.084 457.639 205.608L428.974 224.672V186.433C428.974 184.988 428.493 183.778 427.511 182.782C426.53 181.789 425.371 181.284 423.996 181.284C422.621 181.284 421.408 181.789 420.425 182.782C419.444 183.776 418.962 184.988 418.962 186.433V254.556C418.962 255.964 419.444 257.176 420.425 258.188C421.406 259.199 422.584 259.705 423.996 259.705C425.405 259.705 426.549 259.199 427.511 258.188C428.493 257.176 428.974 255.964 428.974 254.556V236.865L434.829 232.944L456.979 258.368C457.872 259.253 458.997 259.687 460.335 259.687C461.031 259.687 461.691 259.56 462.298 259.289C462.904 259.036 463.441 258.657 463.885 258.188C464.332 257.719 464.688 257.176 464.957 256.544C465.225 255.929 465.366 255.26 465.366 254.592C465.366 253.255 464.903 252.062 463.973 251.015L443.358 227.289L463.437 213.954C464.721 213.069 465.346 211.714 465.346 209.887V209.924H465.348Z" fill="#1D63ED"/>
<path d="M380.478 220.098C382.013 218.544 383.799 217.316 385.852 216.429C387.904 215.526 390.082 215.074 392.42 215.074C394.526 215.074 396.472 215.436 398.275 216.157C400.059 216.88 401.774 217.946 403.396 219.337C404.359 220.113 405.449 220.51 406.662 220.51C408.108 220.51 409.286 220.022 410.233 219.046C411.179 218.069 411.642 216.841 411.642 215.377C411.642 213.913 411.071 212.557 409.911 211.511C404.984 207.066 399.15 204.842 392.42 204.842C385.012 204.842 378.677 207.516 373.429 212.883C368.18 218.231 365.576 224.701 365.576 232.289C365.576 239.879 368.2 246.329 373.429 251.695C378.677 257.043 384.995 259.736 392.42 259.736C399.131 259.736 404.968 257.514 409.911 253.067C410.964 251.984 411.501 250.737 411.501 249.291C411.501 247.846 411.036 246.599 410.091 245.641C409.145 244.683 407.951 244.195 406.523 244.195C405.31 244.232 404.255 244.592 403.364 245.278C401.757 246.687 400.08 247.735 398.277 248.44C396.492 249.144 394.546 249.488 392.422 249.488C390.084 249.488 387.906 249.036 385.854 248.133C383.801 247.23 382.017 246.001 380.48 244.466C378.946 242.93 377.731 241.087 376.856 239.009C375.981 236.912 375.535 234.672 375.535 232.287C375.535 229.902 375.981 227.662 376.856 225.565C377.731 223.468 378.944 221.663 380.48 220.108V220.098H380.478Z" fill="#1D63ED"/>
</svg>
